<?xml version="1.0" encoding="utf-8"?>
<!-- Generator: Adobe Illustrator 23.0.4, SVG Export Plug-In . SVG Version: 6.00 Build 0)  -->
<svg version="1.1" id="Layer_1" xmlns="http://www.w3.org/2000/svg" xmlns:xlink="http://www.w3.org/1999/xlink" x="0px" y="0px"
	 viewBox="0 0 1305.8 92.6" style="enable-background:new 0 0 1305.8 92.6;" xml:space="preserve">
<style type="text/css">
	.st0{fill:#4E4E4E;}
</style>
<title>content_header_bg</title>
<polygon class="st0" points="1307.5,0 1305.8,0.1 1305.8,0 "/>
<path class="st0" d="M1262.9,0h43v0.1l-2,0.1c-5,0.1-15.8,1.2-20.6,2.4c-4,1-7.8,2.8-11,5.4c-3.1,2.7-5.5,6.1-6.9,10
	c-1.7,5.1-2.7,10.5-2.5,15.8"/>
<path class="st0" d="M1263,48v11c-0.2,17.9-14.3,32.4-32,33.5c-0.7,0-1.4,0.1-2.1,0.1H34c-4.9,0-9.7-0.9-14.2-2.7
	c-8.2-3.5-14.7-9.9-18.1-18.1C-0.1,67.6,0,63.2,0,58.6V0h1262.9v48H1263z"/>
<path class="st0" d="M1305.8,59v33.5H1231v-0.1c17.7-1,31.7-15.6,32-33.5H1305.8z"/>
</svg>
