<svg id="Layer_1" data-name="Layer 1" xmlns="http://www.w3.org/2000/svg" viewBox="0 0 208.52 88.17"><defs><style>.cls-1{fill:#f9ad48;}.cls-2{fill:#363535;}</style></defs><title>fastrax-thumb</title><rect class="cls-1" y="0.87" width="10.2" height="10.2"/><path class="cls-1" d="M33,5.33H15.54V20.62H3.39V34.46H17.23V22.83H33Z" transform="translate(0 -0.08)"/><polygon class="cls-2" points="18.02 36.7 6.02 69.17 24.29 69.17 30.78 50.45 63.98 50.45 69.14 36.7 18.02 36.7"/><path class="cls-2" d="M79.1,18.24H35.69v6.39H24.25a26.83,26.83,0,0,0-4.75,7.61H73.7" transform="translate(0 -0.08)"/><path class="cls-2" d="M152.75,18.24H96.28s-11.6.58-17,7.42c-.18.23-.35.47-.52.71L74.7,38.3s-.18,3.81,5.66,5.55l25.09,10.67H33l-1.35,4.05L28,69.25l37.19.1,49.64.11H136l12.21-8.72,3.17,8.72h18.38l-6.39-18,16-18.93L208.52.08,160.25,38.19m-32.5,19.16a15.57,15.57,0,0,0,.63-8s-.72-2.38-8.32-5.56L95.47,33l44-.1.55,1.84,3.74,10.9Z" transform="translate(0 -0.08)"/><path class="cls-2" d="M136,38.19Z" transform="translate(0 -0.08)"/><path class="cls-2" d="M2.63,79,0,88.25l181.67-7.58Z" transform="translate(0 -0.08)"/></svg>